<svg version="1.1" xmlns="http://www.w3.org/2000/svg" xmlns:xlink="http://www.w3.org/1999/xlink" width="400" height="400" viewBox="0 0 400 400"><defs/><g><rect fill="rgb(255,255,255)" stroke="none" x="0" y="0" width="400" height="400" transform="matrix(1 0 0 1 0 0)" fill-opacity="1"/><g><path fill="none" stroke="rgb(255,0,0)" paint-order="fill stroke markers" d=" M -21.336955522937956 -94.9505176949574 L -21.10492423412266 -63.45137228621638 L -48.2679687111847 -47.50085459125898 L -75.66304447706204 -63.049482305042595 L -75.89507576587735 -94.5486277137836 L -48.73203128881532 -110.49914540874101 L -21.336955522937973 -94.95051769495743 L -21.336955522937956 -94.9505176949574 L -21.336955522937956 -94.9505176949574 Z" stroke-opacity="1" stroke-linecap="round" stroke-miterlimit="10" stroke-width="1.5" stroke-dasharray=""/></g><g><path fill="none" stroke="rgb(255,0,0)" paint-order="fill stroke markers" d=" M 33.663044477062044 0.04948230504259854 L 33.89507576587734 31.548627713783617 L 6.7320312888153016 47.49914540874102 L -20.66304447706204 31.950517694957405 L -20.895075765877344 0.4513722862163956 L 6.267968711184679 -15.499145408741022 L 33.66304447706203 0.04948230504256834 L 33.663044477062044 0.04948230504259854 L 33.663044477062044 0.04948230504259854 Z" stroke-opacity="1" stroke-linecap="round" stroke-miterlimit="10" stroke-width="1.5" stroke-dasharray=""/></g><g><path fill="none" stroke="rgb(255,0,0)" paint-order="fill stroke markers" d=" M -21.336955522937956 95.0494823050426 L -21.10492423412266 126.54862771378362 L -48.2679687111847 142.49914540874101 L -75.66304447706204 126.9505176949574 L -75.89507576587735 95.4513722862164 L -48.73203128881532 79.50085459125899 L -21.336955522937973 95.04948230504257 L -21.336955522937956 95.0494823050426 L -21.336955522937956 95.0494823050426 Z" stroke-opacity="1" stroke-linecap="round" stroke-miterlimit="10" stroke-width="1.5" stroke-dasharray=""/></g><g><path fill="none" stroke="rgb(255,0,0)" paint-order="fill stroke markers" d=" M 33.663044477062044 190.0494823050426 L 33.89507576587734 221.54862771378362 L 6.7320312888153016 237.49914540874101 L -20.66304447706204 221.9505176949574 L -20.895075765877344 190.45137228621638 L 6.267968711184679 174.50085459125899 L 33.66304447706203 190.04948230504257 L 33.663044477062044 190.0494823050426 L 33.663044477062044 190.0494823050426 Z" stroke-opacity="1" stroke-linecap="round" stroke-miterlimit="10" stroke-width="1.5" stroke-dasharray=""/></g><g><path fill="none" stroke="rgb(255,0,0)" paint-order="fill stroke markers" d=" M -21.336955522937956 285.0494823050426 L -21.10492423412266 316.5486277137836 L -48.2679687111847 332.499145408741 L -75.66304447706204 316.9505176949574 L -75.89507576587735 285.4513722862164 L -48.73203128881532 269.500854591259 L -21.336955522937973 285.04948230504255 L -21.336955522937956 285.0494823050426 L -21.336955522937956 285.0494823050426 Z" stroke-opacity="1" stroke-linecap="round" stroke-miterlimit="10" stroke-width="1.5" stroke-dasharray=""/></g><g><path fill="none" stroke="rgb(255,0,0)" paint-order="fill stroke markers" d=" M 33.663044477062044 380.0494823050426 L 33.89507576587734 411.5486277137836 L 6.7320312888153016 427.499145408741 L -20.66304447706204 411.9505176949574 L -20.895075765877344 380.4513722862164 L 6.267968711184679 364.500854591259 L 33.66304447706203 380.04948230504255 L 33.663044477062044 380.0494823050426 L 33.663044477062044 380.0494823050426 Z" stroke-opacity="1" stroke-linecap="round" stroke-miterlimit="10" stroke-width="1.5" stroke-dasharray=""/></g><g><path fill="none" stroke="rgb(255,0,0)" paint-order="fill stroke markers" d=" M 89.66304447706204 -94.9505176949574 L 89.89507576587734 -63.45137228621638 L 62.7320312888153 -47.50085459125898 L 35.336955522937956 -63.049482305042595 L 35.104924234122656 -94.5486277137836 L 62.26796871118468 -110.49914540874101 L 89.66304447706203 -94.95051769495743 L 89.66304447706204 -94.9505176949574 L 89.66304447706204 -94.9505176949574 Z" stroke-opacity="1" stroke-linecap="round" stroke-miterlimit="10" stroke-width="1.5" stroke-dasharray=""/></g><g><path fill="none" stroke="rgb(255,0,0)" paint-order="fill stroke markers" d=" M 144.66304447706204 0.04948230504259854 L 144.89507576587735 31.548627713783617 L 117.7320312888153 47.49914540874102 L 90.33695552293796 31.950517694957405 L 90.10492423412265 0.4513722862163956 L 117.26796871118468 -15.499145408741022 L 144.66304447706202 0.04948230504256834 L 144.66304447706204 0.04948230504259854 L 144.66304447706204 0.04948230504259854 Z" stroke-opacity="1" stroke-linecap="round" stroke-miterlimit="10" stroke-width="1.5" stroke-dasharray=""/></g><g><path fill="none" stroke="rgb(255,0,0)" paint-order="fill stroke markers" d=" M 89.66304447706204 95.0494823050426 L 89.89507576587734 126.54862771378362 L 62.7320312888153 142.49914540874101 L 35.336955522937956 126.9505176949574 L 35.104924234122656 95.4513722862164 L 62.26796871118468 79.50085459125899 L 89.66304447706203 95.04948230504257 L 89.66304447706204 95.0494823050426 L 89.66304447706204 95.0494823050426 Z" stroke-opacity="1" stroke-linecap="round" stroke-miterlimit="10" stroke-width="1.5" stroke-dasharray=""/></g><g><path fill="none" stroke="rgb(255,0,0)" paint-order="fill stroke markers" d=" M 144.66304447706204 190.0494823050426 L 144.89507576587735 221.54862771378362 L 117.7320312888153 237.49914540874101 L 90.33695552293796 221.9505176949574 L 90.10492423412265 190.45137228621638 L 117.26796871118468 174.50085459125899 L 144.66304447706202 190.04948230504257 L 144.66304447706204 190.0494823050426 L 144.66304447706204 190.0494823050426 Z" stroke-opacity="1" stroke-linecap="round" stroke-miterlimit="10" stroke-width="1.5" stroke-dasharray=""/></g><g><path fill="none" stroke="rgb(255,0,0)" paint-order="fill stroke markers" d=" M 89.66304447706204 285.0494823050426 L 89.89507576587734 316.5486277137836 L 62.7320312888153 332.499145408741 L 35.336955522937956 316.9505176949574 L 35.104924234122656 285.4513722862164 L 62.26796871118468 269.500854591259 L 89.66304447706203 285.04948230504255 L 89.66304447706204 285.0494823050426 L 89.66304447706204 285.0494823050426 Z" stroke-opacity="1" stroke-linecap="round" stroke-miterlimit="10" stroke-width="1.5" stroke-dasharray=""/></g><g><path fill="none" stroke="rgb(255,0,0)" paint-order="fill stroke markers" d=" M 144.66304447706204 380.0494823050426 L 144.89507576587735 411.5486277137836 L 117.7320312888153 427.499145408741 L 90.33695552293796 411.9505176949574 L 90.10492423412265 380.4513722862164 L 117.26796871118468 364.500854591259 L 144.66304447706202 380.04948230504255 L 144.66304447706204 380.0494823050426 L 144.66304447706204 380.0494823050426 Z" stroke-opacity="1" stroke-linecap="round" stroke-miterlimit="10" stroke-width="1.5" stroke-dasharray=""/></g><g><path fill="none" stroke="rgb(255,0,0)" paint-order="fill stroke markers" d=" M 200.66304447706204 -94.9505176949574 L 200.89507576587735 -63.45137228621638 L 173.7320312888153 -47.50085459125898 L 146.33695552293796 -63.049482305042595 L 146.10492423412265 -94.5486277137836 L 173.26796871118466 -110.49914540874101 L 200.66304447706202 -94.95051769495743 L 200.66304447706204 -94.9505176949574 L 200.66304447706204 -94.9505176949574 Z" stroke-opacity="1" stroke-linecap="round" stroke-miterlimit="10" stroke-width="1.5" stroke-dasharray=""/></g><g><path fill="none" stroke="rgb(255,0,0)" paint-order="fill stroke markers" d=" M 255.66304447706204 0.04948230504259854 L 255.89507576587735 31.548627713783617 L 228.7320312888153 47.49914540874102 L 201.33695552293796 31.950517694957405 L 201.10492423412265 0.4513722862163956 L 228.26796871118466 -15.499145408741022 L 255.66304447706202 0.04948230504256834 L 255.66304447706204 0.04948230504259854 L 255.66304447706204 0.04948230504259854 Z" stroke-opacity="1" stroke-linecap="round" stroke-miterlimit="10" stroke-width="1.5" stroke-dasharray=""/></g><g><path fill="none" stroke="rgb(255,0,0)" paint-order="fill stroke markers" d=" M 200.66304447706204 95.0494823050426 L 200.89507576587735 126.54862771378362 L 173.7320312888153 142.49914540874101 L 146.33695552293796 126.9505176949574 L 146.10492423412265 95.4513722862164 L 173.26796871118466 79.50085459125899 L 200.66304447706202 95.04948230504257 L 200.66304447706204 95.0494823050426 L 200.66304447706204 95.0494823050426 Z" stroke-opacity="1" stroke-linecap="round" stroke-miterlimit="10" stroke-width="1.5" stroke-dasharray=""/></g><g><path fill="none" stroke="rgb(255,0,0)" paint-order="fill stroke markers" d=" M 255.66304447706204 190.0494823050426 L 255.89507576587735 221.54862771378362 L 228.7320312888153 237.49914540874101 L 201.33695552293796 221.9505176949574 L 201.10492423412265 190.45137228621638 L 228.26796871118466 174.50085459125899 L 255.66304447706202 190.04948230504257 L 255.66304447706204 190.0494823050426 L 255.66304447706204 190.0494823050426 Z" stroke-opacity="1" stroke-linecap="round" stroke-miterlimit="10" stroke-width="1.5" stroke-dasharray=""/></g><g><path fill="none" stroke="rgb(255,0,0)" paint-order="fill stroke markers" d=" M 200.66304447706204 285.0494823050426 L 200.89507576587735 316.5486277137836 L 173.7320312888153 332.499145408741 L 146.33695552293796 316.9505176949574 L 146.10492423412265 285.4513722862164 L 173.26796871118466 269.500854591259 L 200.66304447706202 285.04948230504255 L 200.66304447706204 285.0494823050426 L 200.66304447706204 285.0494823050426 Z" stroke-opacity="1" stroke-linecap="round" stroke-miterlimit="10" stroke-width="1.5" stroke-dasharray=""/></g><g><path fill="none" stroke="rgb(255,0,0)" paint-order="fill stroke markers" d=" M 255.66304447706204 380.0494823050426 L 255.89507576587735 411.5486277137836 L 228.7320312888153 427.499145408741 L 201.33695552293796 411.9505176949574 L 201.10492423412265 380.4513722862164 L 228.26796871118466 364.500854591259 L 255.66304447706202 380.04948230504255 L 255.66304447706204 380.0494823050426 L 255.66304447706204 380.0494823050426 Z" stroke-opacity="1" stroke-linecap="round" stroke-miterlimit="10" stroke-width="1.5" stroke-dasharray=""/></g><g><path fill="none" stroke="rgb(255,0,0)" paint-order="fill stroke markers" d=" M 311.66304447706204 -94.9505176949574 L 311.8950757658773 -63.45137228621638 L 284.7320312888153 -47.50085459125898 L 257.33695552293796 -63.049482305042595 L 257.1049242341227 -94.5486277137836 L 284.26796871118466 -110.49914540874101 L 311.66304447706204 -94.95051769495743 L 311.66304447706204 -94.9505176949574 L 311.66304447706204 -94.9505176949574 Z" stroke-opacity="1" stroke-linecap="round" stroke-miterlimit="10" stroke-width="1.5" stroke-dasharray=""/></g><g><path fill="none" stroke="rgb(255,0,0)" paint-order="fill stroke markers" d=" M 366.66304447706204 0.04948230504259854 L 366.8950757658773 31.548627713783617 L 339.7320312888153 47.49914540874102 L 312.33695552293796 31.950517694957405 L 312.1049242341227 0.4513722862163956 L 339.26796871118466 -15.499145408741022 L 366.66304447706204 0.04948230504256834 L 366.66304447706204 0.04948230504259854 L 366.66304447706204 0.04948230504259854 Z" stroke-opacity="1" stroke-linecap="round" stroke-miterlimit="10" stroke-width="1.5" stroke-dasharray=""/></g><g><path fill="none" stroke="rgb(255,0,0)" paint-order="fill stroke markers" d=" M 311.66304447706204 95.0494823050426 L 311.8950757658773 126.54862771378362 L 284.7320312888153 142.49914540874101 L 257.33695552293796 126.9505176949574 L 257.1049242341227 95.4513722862164 L 284.26796871118466 79.50085459125899 L 311.66304447706204 95.04948230504257 L 311.66304447706204 95.0494823050426 L 311.66304447706204 95.0494823050426 Z" stroke-opacity="1" stroke-linecap="round" stroke-miterlimit="10" stroke-width="1.5" stroke-dasharray=""/></g><g><path fill="none" stroke="rgb(255,0,0)" paint-order="fill stroke markers" d=" M 366.66304447706204 190.0494823050426 L 366.8950757658773 221.54862771378362 L 339.7320312888153 237.49914540874101 L 312.33695552293796 221.9505176949574 L 312.1049242341227 190.45137228621638 L 339.26796871118466 174.50085459125899 L 366.66304447706204 190.04948230504257 L 366.66304447706204 190.0494823050426 L 366.66304447706204 190.0494823050426 Z" stroke-opacity="1" stroke-linecap="round" stroke-miterlimit="10" stroke-width="1.5" stroke-dasharray=""/></g><g><path fill="none" stroke="rgb(255,0,0)" paint-order="fill stroke markers" d=" M 311.66304447706204 285.0494823050426 L 311.8950757658773 316.5486277137836 L 284.7320312888153 332.499145408741 L 257.33695552293796 316.9505176949574 L 257.1049242341227 285.4513722862164 L 284.26796871118466 269.500854591259 L 311.66304447706204 285.04948230504255 L 311.66304447706204 285.0494823050426 L 311.66304447706204 285.0494823050426 Z" stroke-opacity="1" stroke-linecap="round" stroke-miterlimit="10" stroke-width="1.5" stroke-dasharray=""/></g><g><path fill="none" stroke="rgb(255,0,0)" paint-order="fill stroke markers" d=" M 366.66304447706204 380.0494823050426 L 366.8950757658773 411.5486277137836 L 339.7320312888153 427.499145408741 L 312.33695552293796 411.9505176949574 L 312.1049242341227 380.4513722862164 L 339.26796871118466 364.500854591259 L 366.66304447706204 380.04948230504255 L 366.66304447706204 380.0494823050426 L 366.66304447706204 380.0494823050426 Z" stroke-opacity="1" stroke-linecap="round" stroke-miterlimit="10" stroke-width="1.5" stroke-dasharray=""/></g><g><path fill="none" stroke="rgb(255,0,0)" paint-order="fill stroke markers" d=" M 422.66304447706204 -94.9505176949574 L 422.8950757658773 -63.45137228621638 L 395.7320312888153 -47.50085459125898 L 368.33695552293796 -63.049482305042595 L 368.1049242341227 -94.5486277137836 L 395.26796871118466 -110.49914540874101 L 422.66304447706204 -94.95051769495743 L 422.66304447706204 -94.9505176949574 L 422.66304447706204 -94.9505176949574 Z" stroke-opacity="1" stroke-linecap="round" stroke-miterlimit="10" stroke-width="1.5" stroke-dasharray=""/></g><g><path fill="none" stroke="rgb(255,0,0)" paint-order="fill stroke markers" d=" M 477.66304447706204 0.04948230504259854 L 477.8950757658773 31.548627713783617 L 450.7320312888153 47.49914540874102 L 423.33695552293796 31.950517694957405 L 423.1049242341227 0.4513722862163956 L 450.26796871118466 -15.499145408741022 L 477.66304447706204 0.04948230504256834 L 477.66304447706204 0.04948230504259854 L 477.66304447706204 0.04948230504259854 Z" stroke-opacity="1" stroke-linecap="round" stroke-miterlimit="10" stroke-width="1.5" stroke-dasharray=""/></g><g><path fill="none" stroke="rgb(255,0,0)" paint-order="fill stroke markers" d=" M 422.66304447706204 95.0494823050426 L 422.8950757658773 126.54862771378362 L 395.7320312888153 142.49914540874101 L 368.33695552293796 126.9505176949574 L 368.1049242341227 95.4513722862164 L 395.26796871118466 79.50085459125899 L 422.66304447706204 95.04948230504257 L 422.66304447706204 95.0494823050426 L 422.66304447706204 95.0494823050426 Z" stroke-opacity="1" stroke-linecap="round" stroke-miterlimit="10" stroke-width="1.5" stroke-dasharray=""/></g><g><path fill="none" stroke="rgb(255,0,0)" paint-order="fill stroke markers" d=" M 477.66304447706204 190.0494823050426 L 477.8950757658773 221.54862771378362 L 450.7320312888153 237.49914540874101 L 423.33695552293796 221.9505176949574 L 423.1049242341227 190.45137228621638 L 450.26796871118466 174.50085459125899 L 477.66304447706204 190.04948230504257 L 477.66304447706204 190.0494823050426 L 477.66304447706204 190.0494823050426 Z" stroke-opacity="1" stroke-linecap="round" stroke-miterlimit="10" stroke-width="1.5" stroke-dasharray=""/></g><g><path fill="none" stroke="rgb(255,0,0)" paint-order="fill stroke markers" d=" M 422.66304447706204 285.0494823050426 L 422.8950757658773 316.5486277137836 L 395.7320312888153 332.499145408741 L 368.33695552293796 316.9505176949574 L 368.1049242341227 285.4513722862164 L 395.26796871118466 269.500854591259 L 422.66304447706204 285.04948230504255 L 422.66304447706204 285.0494823050426 L 422.66304447706204 285.0494823050426 Z" stroke-opacity="1" stroke-linecap="round" stroke-miterlimit="10" stroke-width="1.5" stroke-dasharray=""/></g><g><path fill="none" stroke="rgb(255,0,0)" paint-order="fill stroke markers" d=" M 477.66304447706204 380.0494823050426 L 477.8950757658773 411.5486277137836 L 450.7320312888153 427.499145408741 L 423.33695552293796 411.9505176949574 L 423.1049242341227 380.4513722862164 L 450.26796871118466 364.500854591259 L 477.66304447706204 380.04948230504255 L 477.66304447706204 380.0494823050426 L 477.66304447706204 380.0494823050426 Z" stroke-opacity="1" stroke-linecap="round" stroke-miterlimit="10" stroke-width="1.5" stroke-dasharray=""/></g><g><path fill="none" stroke="rgb(0,0,0)" paint-order="fill stroke markers" d=" M 88.66304447706204 32.0494823050426 L 88.89507576587734 63.54862771378362 L 61.7320312888153 79.49914540874101 L 34.336955522937956 63.950517694957405 L 34.104924234122656 32.4513722862164 L 61.26796871118468 16.500854591258978 L 88.66304447706203 32.04948230504257 L 88.66304447706204 32.0494823050426 L 88.66304447706204 32.0494823050426 Z" stroke-opacity="1" stroke-linecap="round" stroke-miterlimit="10" stroke-width="1.5" stroke-dasharray=""/></g><g><path fill="none" stroke="rgb(0,0,0)" paint-order="fill stroke markers" d=" M 34.663044477062044 127.0494823050426 L 34.89507576587734 158.54862771378362 L 7.7320312888153016 174.49914540874101 L -19.66304447706204 158.9505176949574 L -19.895075765877344 127.4513722862164 L 7.267968711184679 111.50085459125899 L 34.66304447706203 127.04948230504257 L 34.663044477062044 127.0494823050426 L 34.663044477062044 127.0494823050426 Z" stroke-opacity="1" stroke-linecap="round" stroke-miterlimit="10" stroke-width="1.5" stroke-dasharray=""/></g><g><path fill="none" stroke="rgb(0,0,0)" paint-order="fill stroke markers" d=" M 88.66304447706204 222.0494823050426 L 88.89507576587734 253.54862771378362 L 61.7320312888153 269.499145408741 L 34.336955522937956 253.9505176949574 L 34.104924234122656 222.45137228621638 L 61.26796871118468 206.50085459125899 L 88.66304447706203 222.04948230504257 L 88.66304447706204 222.0494823050426 L 88.66304447706204 222.0494823050426 Z" stroke-opacity="1" stroke-linecap="round" stroke-miterlimit="10" stroke-width="1.5" stroke-dasharray=""/></g><g><path fill="none" stroke="rgb(0,0,0)" paint-order="fill stroke markers" d=" M 34.663044477062044 317.0494823050426 L 34.89507576587734 348.5486277137836 L 7.7320312888153016 364.499145408741 L -19.66304447706204 348.9505176949574 L -19.895075765877344 317.4513722862164 L 7.267968711184679 301.500854591259 L 34.66304447706203 317.04948230504255 L 34.663044477062044 317.0494823050426 L 34.663044477062044 317.0494823050426 Z" stroke-opacity="1" stroke-linecap="round" stroke-miterlimit="10" stroke-width="1.5" stroke-dasharray=""/></g><g><path fill="none" stroke="rgb(0,0,0)" paint-order="fill stroke markers" d=" M 199.66304447706204 32.0494823050426 L 199.89507576587735 63.54862771378362 L 172.7320312888153 79.49914540874101 L 145.33695552293796 63.950517694957405 L 145.10492423412265 32.4513722862164 L 172.26796871118466 16.500854591258978 L 199.66304447706202 32.04948230504257 L 199.66304447706204 32.0494823050426 L 199.66304447706204 32.0494823050426 Z" stroke-opacity="1" stroke-linecap="round" stroke-miterlimit="10" stroke-width="1.5" stroke-dasharray=""/></g><g><path fill="none" stroke="rgb(0,0,0)" paint-order="fill stroke markers" d=" M 145.66304447706204 127.0494823050426 L 145.89507576587735 158.54862771378362 L 118.7320312888153 174.49914540874101 L 91.33695552293796 158.9505176949574 L 91.10492423412265 127.4513722862164 L 118.26796871118468 111.50085459125899 L 145.66304447706202 127.04948230504257 L 145.66304447706204 127.0494823050426 L 145.66304447706204 127.0494823050426 Z" stroke-opacity="1" stroke-linecap="round" stroke-miterlimit="10" stroke-width="1.5" stroke-dasharray=""/></g><g><path fill="none" stroke="rgb(0,0,0)" paint-order="fill stroke markers" d=" M 199.66304447706204 222.0494823050426 L 199.89507576587735 253.54862771378362 L 172.7320312888153 269.499145408741 L 145.33695552293796 253.9505176949574 L 145.10492423412265 222.45137228621638 L 172.26796871118466 206.50085459125899 L 199.66304447706202 222.04948230504257 L 199.66304447706204 222.0494823050426 L 199.66304447706204 222.0494823050426 Z" stroke-opacity="1" stroke-linecap="round" stroke-miterlimit="10" stroke-width="1.5" stroke-dasharray=""/></g><g><path fill="none" stroke="rgb(0,0,0)" paint-order="fill stroke markers" d=" M 145.66304447706204 317.0494823050426 L 145.89507576587735 348.5486277137836 L 118.7320312888153 364.499145408741 L 91.33695552293796 348.9505176949574 L 91.10492423412265 317.4513722862164 L 118.26796871118468 301.500854591259 L 145.66304447706202 317.04948230504255 L 145.66304447706204 317.0494823050426 L 145.66304447706204 317.0494823050426 Z" stroke-opacity="1" stroke-linecap="round" stroke-miterlimit="10" stroke-width="1.5" stroke-dasharray=""/></g><g><path fill="none" stroke="rgb(0,0,0)" paint-order="fill stroke markers" d=" M 310.66304447706204 32.0494823050426 L 310.8950757658773 63.54862771378362 L 283.7320312888153 79.49914540874101 L 256.33695552293796 63.950517694957405 L 256.1049242341227 32.4513722862164 L 283.26796871118466 16.500854591258978 L 310.66304447706204 32.04948230504257 L 310.66304447706204 32.0494823050426 L 310.66304447706204 32.0494823050426 Z" stroke-opacity="1" stroke-linecap="round" stroke-miterlimit="10" stroke-width="1.5" stroke-dasharray=""/></g><g><path fill="none" stroke="rgb(0,0,0)" paint-order="fill stroke markers" d=" M 256.66304447706204 127.0494823050426 L 256.8950757658773 158.54862771378362 L 229.7320312888153 174.49914540874101 L 202.33695552293796 158.9505176949574 L 202.10492423412265 127.4513722862164 L 229.26796871118466 111.50085459125899 L 256.66304447706204 127.04948230504257 L 256.66304447706204 127.0494823050426 L 256.66304447706204 127.0494823050426 Z" stroke-opacity="1" stroke-linecap="round" stroke-miterlimit="10" stroke-width="1.5" stroke-dasharray=""/></g><g><path fill="none" stroke="rgb(0,0,0)" paint-order="fill stroke markers" d=" M 310.66304447706204 222.0494823050426 L 310.8950757658773 253.54862771378362 L 283.7320312888153 269.499145408741 L 256.33695552293796 253.9505176949574 L 256.1049242341227 222.45137228621638 L 283.26796871118466 206.50085459125899 L 310.66304447706204 222.04948230504257 L 310.66304447706204 222.0494823050426 L 310.66304447706204 222.0494823050426 Z" stroke-opacity="1" stroke-linecap="round" stroke-miterlimit="10" stroke-width="1.5" stroke-dasharray=""/></g><g><path fill="none" stroke="rgb(0,0,0)" paint-order="fill stroke markers" d=" M 256.66304447706204 317.0494823050426 L 256.8950757658773 348.5486277137836 L 229.7320312888153 364.499145408741 L 202.33695552293796 348.9505176949574 L 202.10492423412265 317.4513722862164 L 229.26796871118466 301.500854591259 L 256.66304447706204 317.04948230504255 L 256.66304447706204 317.0494823050426 L 256.66304447706204 317.0494823050426 Z" stroke-opacity="1" stroke-linecap="round" stroke-miterlimit="10" stroke-width="1.5" stroke-dasharray=""/></g><g><path fill="none" stroke="rgb(0,0,0)" paint-order="fill stroke markers" d=" M 421.66304447706204 32.0494823050426 L 421.8950757658773 63.54862771378362 L 394.7320312888153 79.49914540874101 L 367.33695552293796 63.950517694957405 L 367.1049242341227 32.4513722862164 L 394.26796871118466 16.500854591258978 L 421.66304447706204 32.04948230504257 L 421.66304447706204 32.0494823050426 L 421.66304447706204 32.0494823050426 Z" stroke-opacity="1" stroke-linecap="round" stroke-miterlimit="10" stroke-width="1.5" stroke-dasharray=""/></g><g><path fill="none" stroke="rgb(0,0,0)" paint-order="fill stroke markers" d=" M 367.66304447706204 127.0494823050426 L 367.8950757658773 158.54862771378362 L 340.7320312888153 174.49914540874101 L 313.33695552293796 158.9505176949574 L 313.1049242341227 127.4513722862164 L 340.26796871118466 111.50085459125899 L 367.66304447706204 127.04948230504257 L 367.66304447706204 127.0494823050426 L 367.66304447706204 127.0494823050426 Z" stroke-opacity="1" stroke-linecap="round" stroke-miterlimit="10" stroke-width="1.5" stroke-dasharray=""/></g><g><path fill="none" stroke="rgb(0,0,0)" paint-order="fill stroke markers" d=" M 421.66304447706204 222.0494823050426 L 421.8950757658773 253.54862771378362 L 394.7320312888153 269.499145408741 L 367.33695552293796 253.9505176949574 L 367.1049242341227 222.45137228621638 L 394.26796871118466 206.50085459125899 L 421.66304447706204 222.04948230504257 L 421.66304447706204 222.0494823050426 L 421.66304447706204 222.0494823050426 Z" stroke-opacity="1" stroke-linecap="round" stroke-miterlimit="10" stroke-width="1.5" stroke-dasharray=""/></g><g><path fill="none" stroke="rgb(0,0,0)" paint-order="fill stroke markers" d=" M 367.66304447706204 317.0494823050426 L 367.8950757658773 348.5486277137836 L 340.7320312888153 364.499145408741 L 313.33695552293796 348.9505176949574 L 313.1049242341227 317.4513722862164 L 340.26796871118466 301.500854591259 L 367.66304447706204 317.04948230504255 L 367.66304447706204 317.0494823050426 L 367.66304447706204 317.0494823050426 Z" stroke-opacity="1" stroke-linecap="round" stroke-miterlimit="10" stroke-width="1.5" stroke-dasharray=""/></g></g></svg>